<svg xmlns="http://www.w3.org/2000/svg" width="16" height="20" viewBox="0 0 16 20" fill="none">
  <path d="M8.00105 0C4.00711 0 0.757812 3.2493 0.757812 7.2432C0.757812 12.1998 7.2398 19.4763 7.51578 19.7836C7.775 20.0723 8.22758 20.0718 8.48633 19.7836C8.76231 19.4763 15.2443 12.1998 15.2443 7.2432C15.2442 3.2493 11.995 0 8.00105 0ZM8.00105 10.8875C5.9916 10.8875 4.35684 9.25266 4.35684 7.2432C4.35684 5.23375 5.99164 3.59898 8.00105 3.59898C10.0105 3.59898 11.6452 5.23379 11.6452 7.24324C11.6452 9.2527 10.0105 10.8875 8.00105 10.8875Z" fill="#FE5C4D"/>
</svg>